<?xml version="1.0" encoding="utf-8"?><svg xmlns="http://www.w3.org/2000/svg" xmlns:xlink="http://www.w3.org/1999/xlink"><symbol viewBox="0 0 28 32" id="address" xmlns="http://www.w3.org/2000/svg"><path d="M14 15.406c1.885 0 3.419-1.58 3.419-3.523 0-1.942-1.534-3.523-3.419-3.523s-3.419 1.58-3.419 3.523 1.534 3.523 3.42 3.523zm0-5.284c.943 0 1.71.79 1.71 1.761 0 .971-.767 1.762-1.71 1.762-.942 0-1.71-.79-1.71-1.762 0-.971.768-1.761 1.71-1.761z"/><path d="M24.875 21.207h-5.72c2.67-2.627 5.1-5.202 5.1-9.688C24.256 5.475 19.853.95 14 .95 8.136.95 3.744 5.49 3.744 11.52c0 4.486 2.43 7.06 5.101 9.688h-5.72L0 31.013h28l-3.125-9.806zM5.454 11.52c0-5.103 3.594-8.807 8.546-8.807s8.547 3.704 8.547 8.807c0 5.71-4.677 7.732-8.547 12.649-1.163-1.478-2.407-2.698-3.616-3.883-2.755-2.701-4.93-4.835-4.93-8.766zm-2.4 15.56h6.16v-1.762h-5.6l.75-2.348h6.217v-.04c2.27 2.32 2.885 3.483 3.42 4.176.546-.71 1.14-1.849 3.418-4.176v.04h6.218l.748 2.348h-5.599v1.762h6.16l.693 2.172H2.361l.692-2.172z"/></symbol><symbol viewBox="0 0 44 44" id="address-mob" xmlns="http://www.w3.org/2000/svg"><mask id="ba" maskUnits="userSpaceOnUse" x="-.447" y="-.362" width="44" height="44"><path d="M-.447-.362h44v44h-44z"/><path fill-rule="evenodd" clip-rule="evenodd" d="M10.97 13.398C5.226 13.398.553 18.066.553 23.805c0 3.563 1.697 7.393 5.042 11.386.498.593.993 1.143 1.468 1.644-2.16.59-3.457 1.648-3.457 2.883 0 2.187 3.794 3.367 7.364 3.367s7.364-1.18 7.364-3.367c0-1.234-1.297-2.293-3.456-2.882a33.91 33.91 0 002.671-3.174l1.426-2.139c1.6-2.688 2.412-5.285 2.412-7.718 0-5.739-4.673-10.407-10.417-10.407zm2.358 23.24a33.423 33.423 0 003.218-3.715l1.358-2.036c1.484-2.493 2.237-4.876 2.237-7.082 0-5.052-4.114-9.162-9.171-9.162-5.057 0-9.17 4.11-9.17 9.162 0 5.081 3.978 9.98 6.8 12.816a.62.62 0 01.312.31 35.227 35.227 0 002.058 1.873 35.26 35.26 0 002.086-1.897.622.622 0 01.272-.27zm-2.358 3.59a.622.622 0 01-.381-.13c-.066-.051-1.109-.862-2.504-2.226-2.103.428-3.233 1.252-3.233 1.846 0 .865 2.383 2.122 6.118 2.122 1.722 0 3.33-.269 4.531-.758.979-.398 1.587-.92 1.587-1.364 0-.593-1.13-1.418-3.232-1.846-1.387 1.356-2.428 2.167-2.505 2.226a.622.622 0 01-.38.13zm27.15-21.507c.317-.34.644-.706.971-1.097C41.685 14.53 43 11.554 43 8.781 43 4.29 39.344.638 34.85.638a8.139 8.139 0 00-7.51 4.973c-.474 1.203-.584 1.903-.64 3.17 0 2.773 1.315 5.748 3.909 8.844.327.39.653.756.97 1.096-1.606.482-2.533 1.302-2.533 2.29 0 .834.677 1.568 1.905 2.069 1.052.428 2.436.663 3.899.663 1.462 0 2.847-.235 3.898-.663 1.229-.5 1.905-1.235 1.905-2.068 0-.987-.928-1.808-2.533-2.29zM34.85 1.883a6.895 6.895 0 00-6.362 4.213c-.425 1.03-.535 1.652-.542 2.685 0 3.848 3.015 7.567 5.166 9.731a.63.63 0 01.277.275c.61.598 1.13 1.054 1.46 1.333 1.5-1.268 6.905-6.196 6.905-11.339 0-3.804-3.097-6.898-6.904-6.898zm-4.558 19.128c0 .505 1.609 1.487 4.558 1.487s4.557-.982 4.557-1.487c0-.182-.214-.421-.572-.64-.422-.256-1.026-.474-1.722-.622a24.29 24.29 0 01-1.882 1.668.623.623 0 01-.762 0c-.05-.039-.831-.646-1.883-1.668-1.562.332-2.294.934-2.294 1.262z"/><path d="M34.85 5.159a3.628 3.628 0 00-3.625 3.622 3.628 3.628 0 003.625 3.622 3.628 3.628 0 003.625-3.622 3.628 3.628 0 00-3.625-3.622zm0 5.999a2.38 2.38 0 01-2.38-2.377 2.38 2.38 0 012.38-2.377 2.38 2.38 0 012.38 2.377 2.38 2.38 0 01-2.38 2.377zm-8.082 9.231h-.284c-.207 0-.415.014-.619.04a.623.623 0 10.164 1.235c.15-.02.303-.03.455-.03h.284a.623.623 0 100-1.245zm-2.059 18.675h-.003l-.823.004a.623.623 0 00.003 1.245h.003l.823-.004a.623.623 0 00-.003-1.245zm2.799-10.613h-.823a.623.623 0 100 1.245h.823a.623.623 0 100-1.245zm-3.302-6.794a.624.624 0 00-.88-.036 4.68 4.68 0 00-.628.71.622.622 0 101.012.726c.136-.189.29-.364.461-.52a.622.622 0 00.035-.88zM28 39.048h-.003l-.822.004a.623.623 0 00.002 1.245h.003l.823-.004A.623.623 0 0028 39.048zm-6.582.03h-.003l-.823.004a.623.623 0 00.003 1.245h.002l.823-.004a.623.623 0 00-.003-1.245zm3.249-11.15a3.437 3.437 0 01-.547-.428.624.624 0 00-.864.897c.228.22.479.416.746.584a.62.62 0 00.86-.195.622.622 0 00-.195-.858zm-1.532-2.23a3.438 3.438 0 01-.063-.656v-.035a.622.622 0 00-.616-.629h-.007a.623.623 0 00-.623.615v.05c0 .3.029.6.086.893a.623.623 0 001.223-.238zm7.665 2.753h-.824a.623.623 0 100 1.245h.823a.623.623 0 100-1.245zm10.002 1.268a5.932 5.932 0 00-.763-.511.623.623 0 00-.611 1.084c.21.119.412.254.602.404a.62.62 0 00.875-.103.622.622 0 00-.103-.874zm-2.312 9.776a.623.623 0 00-.703-.531 4.686 4.686 0 01-.622.044h-.116a.623.623 0 00.003 1.245h.118c.263-.002.528-.02.786-.056a.622.622 0 00.532-.702zm2.749-1.751a.623.623 0 00-.881-.021 4.77 4.77 0 01-.563.458.622.622 0 10.71 1.023c.252-.174.491-.37.712-.58a.622.622 0 00.022-.88zm1.212-3.023a.623.623 0 00-.727.497 4.673 4.673 0 01-.19.699.622.622 0 101.174.418c.103-.288.184-.586.24-.887a.623.623 0 00-.497-.727zm.37-2.001a5.88 5.88 0 00-.322-.86.623.623 0 00-1.13.526c.102.218.188.446.255.677a.623.623 0 001.197-.343zm-8.731-4.269h-.822a.623.623 0 100 1.245h.823a.623.623 0 100-1.245zm-2.798 10.583h-.003l-.823.003a.623.623 0 00.003 1.245h.003l.822-.003a.623.623 0 00-.002-1.245zm6.118-10.577a5.876 5.876 0 00-.266-.006h-.585a.623.623 0 100 1.245h.585a4.877 4.877 0 01.239.005.623.623 0 00.026-1.244zm-2.827 10.561h-.003l-.823.004a.623.623 0 00.003 1.245h.003l.823-.004a.623.623 0 00-.003-1.245z"/><path fill-rule="evenodd" clip-rule="evenodd" d="M10.97 19.28c-.985 0-1.922.31-2.71.898a.62.62 0 00-.113.11c-.761.743-1.193 1.37-1.499 2.18a.63.63 0 00-.032.086 4.528 4.528 0 004.354 5.776c2.497 0 4.53-2.03 4.53-4.525a4.532 4.532 0 00-4.53-4.526zm0 1.244c-.715 0-1.393.225-1.964.651-.614.59-.89.96-1.192 1.723a3.28 3.28 0 003.156 4.187 3.285 3.285 0 003.283-3.28 3.285 3.285 0 00-3.283-3.28z"/></mask><path fill-rule="evenodd" clip-rule="evenodd" d="M10.97 13.398C5.226 13.398.553 18.066.553 23.805c0 3.563 1.697 7.393 5.042 11.386.498.593.993 1.143 1.468 1.644-2.16.59-3.457 1.648-3.457 2.883 0 2.187 3.794 3.367 7.364 3.367s7.364-1.18 7.364-3.367c0-1.234-1.297-2.293-3.456-2.882a33.91 33.91 0 002.671-3.174l1.426-2.139c1.6-2.688 2.412-5.285 2.412-7.718 0-5.739-4.673-10.407-10.417-10.407zm2.358 23.24a33.423 33.423 0 003.218-3.715l1.358-2.036c1.484-2.493 2.237-4.876 2.237-7.082 0-5.052-4.114-9.162-9.171-9.162-5.057 0-9.17 4.11-9.17 9.162 0 5.081 3.978 9.98 6.8 12.816a.62.62 0 01.312.31 35.227 35.227 0 002.058 1.873 35.26 35.26 0 002.086-1.897.622.622 0 01.272-.27zm-2.358 3.59a.622.622 0 01-.381-.13c-.066-.051-1.109-.862-2.504-2.226-2.103.428-3.233 1.252-3.233 1.846 0 .865 2.383 2.122 6.118 2.122 1.722 0 3.33-.269 4.531-.758.979-.398 1.587-.92 1.587-1.364 0-.593-1.13-1.418-3.232-1.846-1.387 1.356-2.428 2.167-2.505 2.226a.622.622 0 01-.38.13zm27.15-21.507c.317-.34.644-.706.971-1.097C41.685 14.53 43 11.554 43 8.781 43 4.29 39.344.638 34.85.638a8.139 8.139 0 00-7.51 4.973c-.474 1.203-.584 1.903-.64 3.17 0 2.773 1.315 5.748 3.909 8.844.327.39.653.756.97 1.096-1.606.482-2.533 1.302-2.533 2.29 0 .834.677 1.568 1.905 2.069 1.052.428 2.436.663 3.899.663 1.462 0 2.847-.235 3.898-.663 1.229-.5 1.905-1.235 1.905-2.068 0-.987-.928-1.808-2.533-2.29zM34.85 1.883a6.895 6.895 0 00-6.362 4.213c-.425 1.03-.535 1.652-.542 2.685 0 3.848 3.015 7.567 5.166 9.731a.63.63 0 01.277.275c.61.598 1.13 1.054 1.46 1.333 1.5-1.268 6.905-6.196 6.905-11.339 0-3.804-3.097-6.898-6.904-6.898zm-4.558 19.128c0 .505 1.609 1.487 4.558 1.487s4.557-.982 4.557-1.487c0-.182-.214-.421-.572-.64-.422-.256-1.026-.474-1.722-.622a24.29 24.29 0 01-1.882 1.668.623.623 0 01-.762 0c-.05-.039-.831-.646-1.883-1.668-1.562.332-2.294.934-2.294 1.262z"/><path d="M34.85 5.159a3.628 3.628 0 00-3.625 3.622 3.628 3.628 0 003.625 3.622 3.628 3.628 0 003.625-3.622 3.628 3.628 0 00-3.625-3.622zm0 5.999a2.38 2.38 0 01-2.38-2.377 2.38 2.38 0 012.38-2.377 2.38 2.38 0 012.38 2.377 2.38 2.38 0 01-2.38 2.377zm-8.082 9.231h-.284c-.207 0-.415.014-.619.04a.623.623 0 10.164 1.235c.15-.02.303-.03.455-.03h.284a.623.623 0 100-1.245zm-2.059 18.675h-.003l-.823.004a.623.623 0 00.003 1.245h.003l.823-.004a.623.623 0 00-.003-1.245zm2.799-10.613h-.823a.623.623 0 100 1.245h.823a.623.623 0 100-1.245zm-3.302-6.794a.624.624 0 00-.88-.036 4.68 4.68 0 00-.628.71.622.622 0 101.012.726c.136-.189.29-.364.461-.52a.622.622 0 00.035-.88zM28 39.048h-.003l-.822.004a.623.623 0 00.002 1.245h.003l.823-.004A.623.623 0 0028 39.048zm-6.582.03h-.003l-.823.004a.623.623 0 00.003 1.245h.002l.823-.004a.623.623 0 00-.003-1.245zm3.249-11.15a3.437 3.437 0 01-.547-.428.624.624 0 00-.864.897c.228.22.479.416.746.584a.62.62 0 00.86-.195.622.622 0 00-.195-.858zm-1.532-2.23a3.438 3.438 0 01-.063-.656v-.035a.622.622 0 00-.616-.629h-.007a.623.623 0 00-.623.615v.05c0 .3.029.6.086.893a.623.623 0 001.223-.238zm7.665 2.753h-.824a.623.623 0 100 1.245h.823a.623.623 0 100-1.245zm10.002 1.268a5.932 5.932 0 00-.763-.511.623.623 0 00-.611 1.084c.21.119.412.254.602.404a.62.62 0 00.875-.103.622.622 0 00-.103-.874zm-2.312 9.776a.623.623 0 00-.703-.531 4.686 4.686 0 01-.622.044h-.116a.623.623 0 00.003 1.245h.118c.263-.002.528-.02.786-.056a.622.622 0 00.532-.702zm2.749-1.751a.623.623 0 00-.881-.021 4.77 4.77 0 01-.563.458.622.622 0 10.71 1.023c.252-.174.491-.37.712-.58a.622.622 0 00.022-.88zm1.212-3.023a.623.623 0 00-.727.497 4.673 4.673 0 01-.19.699.622.622 0 101.174.418c.103-.288.184-.586.24-.887a.623.623 0 00-.497-.727zm.37-2.001a5.88 5.88 0 00-.322-.86.623.623 0 00-1.13.526c.102.218.188.446.255.677a.623.623 0 001.197-.343zm-8.731-4.269h-.822a.623.623 0 100 1.245h.823a.623.623 0 100-1.245zm-2.798 10.583h-.003l-.823.003a.623.623 0 00.003 1.245h.003l.822-.003a.623.623 0 00-.002-1.245zm6.118-10.577a5.876 5.876 0 00-.266-.006h-.585a.623.623 0 100 1.245h.585a4.877 4.877 0 01.239.005.623.623 0 00.026-1.244zm-2.827 10.561h-.003l-.823.004a.623.623 0 00.003 1.245h.003l.823-.004a.623.623 0 00-.003-1.245z"/><path fill-rule="evenodd" clip-rule="evenodd" d="M10.97 19.28c-.985 0-1.922.31-2.71.898a.62.62 0 00-.113.11c-.761.743-1.193 1.37-1.499 2.18a.63.63 0 00-.032.086 4.528 4.528 0 004.354 5.776c2.497 0 4.53-2.03 4.53-4.525a4.532 4.532 0 00-4.53-4.526zm0 1.244c-.715 0-1.393.225-1.964.651-.614.59-.89.96-1.192 1.723a3.28 3.28 0 003.156 4.187 3.285 3.285 0 003.283-3.28 3.285 3.285 0 00-3.283-3.28z"/><path clip-rule="evenodd" d="M10.97 13.398C5.226 13.398.553 18.066.553 23.805c0 3.563 1.697 7.393 5.042 11.386.498.593.993 1.143 1.468 1.644-2.16.59-3.457 1.648-3.457 2.883 0 2.187 3.794 3.367 7.364 3.367s7.364-1.18 7.364-3.367c0-1.234-1.297-2.293-3.456-2.882a33.91 33.91 0 002.671-3.174l1.426-2.139c1.6-2.688 2.412-5.285 2.412-7.718 0-5.739-4.673-10.407-10.417-10.407zm2.358 23.24a33.423 33.423 0 003.218-3.715l1.358-2.036c1.484-2.493 2.237-4.876 2.237-7.082 0-5.052-4.114-9.162-9.171-9.162-5.057 0-9.17 4.11-9.17 9.162 0 5.081 3.978 9.98 6.8 12.816a.62.62 0 01.312.31 35.227 35.227 0 002.058 1.873 35.26 35.26 0 002.086-1.897.622.622 0 01.272-.27zm-2.358 3.59a.622.622 0 01-.381-.13c-.066-.051-1.109-.862-2.504-2.226-2.103.428-3.233 1.252-3.233 1.846 0 .865 2.383 2.122 6.118 2.122 1.722 0 3.33-.269 4.531-.758.979-.398 1.587-.92 1.587-1.364 0-.593-1.13-1.418-3.232-1.846-1.387 1.356-2.428 2.167-2.505 2.226a.622.622 0 01-.38.13zm27.15-21.507c.317-.34.644-.706.971-1.097C41.685 14.53 43 11.554 43 8.781 43 4.29 39.344.638 34.85.638a8.139 8.139 0 00-7.51 4.973c-.474 1.203-.584 1.903-.64 3.17 0 2.773 1.315 5.748 3.909 8.844.327.39.653.756.97 1.096-1.606.482-2.533 1.302-2.533 2.29 0 .834.677 1.568 1.905 2.069 1.052.428 2.436.663 3.899.663 1.462 0 2.847-.235 3.898-.663 1.229-.5 1.905-1.235 1.905-2.068 0-.987-.928-1.808-2.533-2.29zM34.85 1.883a6.895 6.895 0 00-6.362 4.213c-.425 1.03-.535 1.652-.542 2.685 0 3.848 3.015 7.567 5.166 9.731a.63.63 0 01.277.275c.61.598 1.13 1.054 1.46 1.333 1.5-1.268 6.905-6.196 6.905-11.339 0-3.804-3.097-6.898-6.904-6.898zm-4.558 19.128c0 .505 1.609 1.487 4.558 1.487s4.557-.982 4.557-1.487c0-.182-.214-.421-.572-.64-.422-.256-1.026-.474-1.722-.622a24.29 24.29 0 01-1.882 1.668.623.623 0 01-.762 0c-.05-.039-.831-.646-1.883-1.668-1.562.332-2.294.934-2.294 1.262z" mask="url(#ba)"/><path d="M34.85 5.159a3.628 3.628 0 00-3.625 3.622 3.628 3.628 0 003.625 3.622 3.628 3.628 0 003.625-3.622 3.628 3.628 0 00-3.625-3.622zm0 5.999a2.38 2.38 0 01-2.38-2.377 2.38 2.38 0 012.38-2.377 2.38 2.38 0 012.38 2.377 2.38 2.38 0 01-2.38 2.377zm-8.082 9.231h-.284c-.207 0-.415.014-.619.04a.623.623 0 10.164 1.235c.15-.02.303-.03.455-.03h.284a.623.623 0 100-1.245zm-2.059 18.675h-.003l-.823.004a.623.623 0 00.003 1.245h.003l.823-.004a.623.623 0 00-.003-1.245zm2.799-10.613h-.823a.623.623 0 100 1.245h.823a.623.623 0 100-1.245zm-3.302-6.794a.624.624 0 00-.88-.036 4.68 4.68 0 00-.628.71.622.622 0 101.012.726c.136-.189.29-.364.461-.52a.622.622 0 00.035-.88zM28 39.048h-.003l-.822.004a.623.623 0 00.002 1.245h.003l.823-.004A.623.623 0 0028 39.048zm-6.582.03h-.003l-.823.004a.623.623 0 00.003 1.245h.002l.823-.004a.623.623 0 00-.003-1.245zm3.249-11.15a3.437 3.437 0 01-.547-.428.624.624 0 00-.864.897c.228.22.479.416.746.584a.62.62 0 00.86-.195.622.622 0 00-.195-.858zm-1.532-2.23a3.438 3.438 0 01-.063-.656v-.035a.622.622 0 00-.616-.629h-.007a.623.623 0 00-.623.615v.05c0 .3.029.6.086.893a.623.623 0 001.223-.238zm7.665 2.753h-.824a.623.623 0 100 1.245h.823a.623.623 0 100-1.245zm10.002 1.268a5.932 5.932 0 00-.763-.511.623.623 0 00-.611 1.084c.21.119.412.254.602.404a.62.62 0 00.875-.103.622.622 0 00-.103-.874zm-2.312 9.776a.623.623 0 00-.703-.531 4.686 4.686 0 01-.622.044h-.116a.623.623 0 00.003 1.245h.118c.263-.002.528-.02.786-.056a.622.622 0 00.532-.702zm2.749-1.751a.623.623 0 00-.881-.021 4.77 4.77 0 01-.563.458.622.622 0 10.71 1.023c.252-.174.491-.37.712-.58a.622.622 0 00.022-.88zm1.212-3.023a.623.623 0 00-.727.497 4.673 4.673 0 01-.19.699.622.622 0 101.174.418c.103-.288.184-.586.24-.887a.623.623 0 00-.497-.727zm.37-2.001a5.88 5.88 0 00-.322-.86.623.623 0 00-1.13.526c.102.218.188.446.255.677a.623.623 0 001.197-.343zm-8.731-4.269h-.822a.623.623 0 100 1.245h.823a.623.623 0 100-1.245zm-2.798 10.583h-.003l-.823.003a.623.623 0 00.003 1.245h.003l.822-.003a.623.623 0 00-.002-1.245zm6.118-10.577a5.876 5.876 0 00-.266-.006h-.585a.623.623 0 100 1.245h.585a4.877 4.877 0 01.239.005.623.623 0 00.026-1.244zm-2.827 10.561h-.003l-.823.004a.623.623 0 00.003 1.245h.003l.823-.004a.623.623 0 00-.003-1.245z" mask="url(#ba)"/><path clip-rule="evenodd" d="M10.97 19.28c-.985 0-1.922.31-2.71.898a.62.62 0 00-.113.11c-.761.743-1.193 1.37-1.499 2.18a.63.63 0 00-.032.086 4.528 4.528 0 004.354 5.776c2.497 0 4.53-2.03 4.53-4.525a4.532 4.532 0 00-4.53-4.526zm0 1.244c-.715 0-1.393.225-1.964.651-.614.59-.89.96-1.192 1.723a3.28 3.28 0 003.156 4.187 3.285 3.285 0 003.283-3.28 3.285 3.285 0 00-3.283-3.28z" mask="url(#ba)"/></symbol><symbol viewBox="0 0 17 11" id="arrow" xmlns="http://www.w3.org/2000/svg"><path opacity=".7" d="M1 5.5h15m0 0L11.588 1M16 5.5L11.588 10"/></symbol><symbol viewBox="0 0 24 20" id="burgerr" xmlns="http://www.w3.org/2000/svg"><path d="M1 1h22M1 10h22M1 19h22"/></symbol><symbol viewBox="0 0 21 16" id="catalog" xmlns="http://www.w3.org/2000/svg"><path d="M0 .781h21v1.313H0zm0 6.563h21v1.313H0zm0 6.562h21v1.313H0z"/></symbol><symbol viewBox="0 0 42 42" id="certificate" xmlns="http://www.w3.org/2000/svg"><path fill-rule="evenodd" clip-rule="evenodd" d="M41.654 5.146L36.696.372C36.507.189 36.312 0 35.948 0H16.087c-.58 0-1.052.477-1.052 1.062v3.263l-7 1.212a1.045 1.045 0 00-.842 1.207l.355 2.092c-2.275.773-4.61 1.57-6.866 2.388a1.055 1.055 0 00-.622 1.337l4.486 12.592.943 2.65L10.3 41.31c.154.425.552.689.973.689.117 0 .235-.02.35-.063l6.29-2.283 14.28-5.184 2.729-.472h6.027A1.06 1.06 0 0042 32.933V5.847c0-.372-.2-.562-.346-.7zm-40.37 7.18l4.42 12.407.943 2.649 4.742 13.32 6.106-2.218 7.743-2.81-5.148.891-6.588 1.142a1.045 1.045 0 01-1.196-.852L9.873 22.522 7.76 10.075c-2.15.73-4.35 1.482-6.475 2.25zm35.662-7.032h3.078l-3.786-3.646.008 3.348c0 .126.023.193.043.214.088.087.431.085.58.084h.077zM16.265 32.755H40.77V6.536h-3.98c-.365 0-.952-.028-1.367-.445-.27-.27-.408-.639-.408-1.094l-.008-3.755H16.265v31.513zm-1.23.178V5.585L8.438 6.727l2.647 15.584 2.4 14.138 6.396-1.109 7.756-1.342h-11.55a1.06 1.06 0 01-1.052-1.065z"/><path d="M19.231 9.647c0 .343.276.621.616.621h17.59c.34 0 .615-.278.615-.621a.618.618 0 00-.615-.621h-17.59a.618.618 0 00-.616.621zm18.206 3.793h-17.59a.618.618 0 00-.616.62c0 .344.276.622.616.622h17.59c.34 0 .615-.278.615-.621a.618.618 0 00-.615-.622zm0 4.413h-17.59a.618.618 0 00-.616.621c0 .344.276.622.616.622h17.59c.34 0 .615-.278.615-.622a.618.618 0 00-.615-.62zm0 4.414h-17.59a.618.618 0 00-.616.621c0 .343.276.621.616.621h17.59c.34 0 .615-.278.615-.62a.618.618 0 00-.615-.622zm0 4.413h-17.59a.618.618 0 00-.616.622c0 .343.276.621.616.621h17.59c.34 0 .615-.278.615-.62a.618.618 0 00-.615-.622z"/></symbol><symbol viewBox="0 0 13 25" id="clip" xmlns="http://www.w3.org/2000/svg"><path d="M10.936 18.75V5.832h1.4V18.75a6.09 6.09 0 01-6.086 6.1 6.09 6.09 0 01-6.087-6.1V4.545A4.39 4.39 0 014.55.15a4.39 4.39 0 014.386 4.395v11.932c0 .714-.283 1.398-.787 1.903a2.682 2.682 0 01-3.796 0 2.694 2.694 0 01-.787-1.903V5.832h1.401v10.645c0 .708.577 1.287 1.284 1.287a1.29 1.29 0 001.284-1.287V4.545c0-.793-.314-1.553-.874-2.114a2.982 2.982 0 00-4.222 0 2.994 2.994 0 00-.874 2.114V18.75a4.69 4.69 0 004.686 4.695 4.69 4.69 0 004.686-4.695z"/></symbol><symbol viewBox="0 0 18 18" id="cross" xmlns="http://www.w3.org/2000/svg"><path d="M1 1.222l15.556 15.556M1 16.778L16.556 1.222"/></symbol><symbol viewBox="0 0 23 31" id="custom" xmlns="http://www.w3.org/2000/svg"><path d="M17.29 2.677L6.978 13.047a.654.654 0 00-.17.298l-.885 3.428a.657.657 0 00.17.627.648.648 0 00.623.17l3.409-.89a.65.65 0 00.296-.17L20.733 6.14v-.002l2.076-2.087a.656.656 0 000-.925L20.287.588a.648.648 0 00-.92 0l-2.075 2.088h-.001zM9.627 15.459l-2.167.566.563-2.179 9.727-9.783 1.604 1.613-9.727 9.783zm10.2-13.484l1.603 1.613-1.157 1.164-1.604-1.614 1.157-1.163z"/><path d="M22.35 7.483a.652.652 0 00-.65.654V29.15H1.3V4.147h12.036c.36 0 .65-.293.65-.654a.652.652 0 00-.65-.654H.65a.652.652 0 00-.65.654v26.312c0 .361.291.654.65.654h21.7c.359 0 .65-.293.65-.654V8.137a.652.652 0 00-.65-.654z"/></symbol><symbol viewBox="0 0 13 25" id="file" xmlns="http://www.w3.org/2000/svg"><path d="M10.936 18.75V5.832h1.4V18.75a6.09 6.09 0 01-6.086 6.1 6.09 6.09 0 01-6.087-6.1V4.545A4.39 4.39 0 014.55.15a4.39 4.39 0 014.386 4.395v11.932c0 .714-.283 1.398-.787 1.903a2.682 2.682 0 01-3.796 0 2.694 2.694 0 01-.787-1.903V5.832h1.401v10.645c0 .708.577 1.287 1.284 1.287a1.29 1.29 0 001.284-1.287V4.545c0-.793-.314-1.553-.874-2.114a2.982 2.982 0 00-4.222 0 2.994 2.994 0 00-.874 2.114V18.75a4.69 4.69 0 004.686 4.695 4.69 4.69 0 004.686-4.695z"/></symbol><symbol viewBox="0 0 28 23" id="mail" xmlns="http://www.w3.org/2000/svg"><path d="M25.54.967H2.46A2.468 2.468 0 000 3.433v16.44c0 1.355 1.1 2.467 2.46 2.467h23.08A2.467 2.467 0 0028 19.874V3.433C28 2.078 26.9.967 25.54.967zM25.2 2.61L14.051 13.78 2.81 2.611H25.2zM1.64 19.533V3.766l7.902 7.85-7.901 7.917zm1.16 1.163l7.907-7.923 2.77 2.752a.819.819 0 001.158-.002l2.7-2.707 7.864 7.88H2.801zm23.56-1.163l-7.864-7.88 7.863-7.88v15.76z"/></symbol><symbol viewBox="0 0 32 30" id="phone" xmlns="http://www.w3.org/2000/svg"><path d="M17.875 8.437a.936.936 0 10-.938-.936c0 .517.42.936.938.936zm3.75 0a.936.936 0 10-.938-.936c0 .517.42.936.938.936zm3.75 0a.936.936 0 10-.938-.936c0 .517.42.936.938.936zm-4.299 20.576a2.806 2.806 0 002.799-2.806v-3.742a.936.936 0 00-.64-.887l-5.612-1.87a.94.94 0 00-.817.109l-2.387 1.587c-2.56-1.212-5.588-4.206-6.792-6.716l1.59-2.38a.934.934 0 00.11-.815L7.452 5.895a.937.937 0 00-.89-.64h-3.75C1.262 5.256 0 6.51 0 8.05c0 5.167 2.355 10.471 6.462 14.55 4.102 4.076 9.429 6.414 14.614 6.414zM2.812 7.126h3.075l1.516 4.526-1.62 2.425a.933.933 0 00-.09.866c.623 1.555 1.87 3.304 3.512 4.924 1.631 1.61 3.393 2.841 4.96 3.467a.94.94 0 00.868-.09l2.431-1.617L22 23.14v3.068a.92.92 0 01-.924.935c-9.87 0-19.201-9.28-19.201-19.093a.92.92 0 01.938-.923z"/><path d="M17.516 17.718a.939.939 0 001.022-.203l3.475-3.467h3.362C29.028 14.048 32 11.11 32 7.5S29.028.954 25.375.954h-7.5c-3.619 0-6.563 2.937-6.563 6.547 0 3.292 2.45 6.025 5.626 6.48v2.873c0 .378.228.72.578.864zM13.188 7.5a4.686 4.686 0 014.687-4.676h7.5c2.62 0 4.75 2.097 4.75 4.676s-2.13 4.676-4.75 4.676h-3.75a.938.938 0 00-.663.274l-2.15 2.145v-1.483a.936.936 0 00-.937-.936c-2.585 0-4.688-2.097-4.688-4.676z"/></symbol><symbol viewBox="0 0 18 18" id="phone-mob" xmlns="http://www.w3.org/2000/svg"><path d="M15.89 18A2.12 2.12 0 0018 15.874v-2.835a.709.709 0 00-.483-.672l-4.23-1.417a.705.705 0 00-.617.082l-1.799 1.203c-1.93-.919-4.213-3.187-5.12-5.088l1.198-1.803a.71.71 0 00.083-.618L5.618.484A.707.707 0 004.948 0H2.12A2.12 2.12 0 000 2.116C0 6.03 1.776 10.05 4.872 13.14 7.964 16.23 11.98 18 15.89 18zM2.12 1.417h2.32l1.142 3.43L4.36 6.682a.71.71 0 00-.069.657c.47 1.178 1.411 2.503 2.649 3.73 1.23 1.22 2.558 2.153 3.74 2.627.216.087.46.061.654-.068l1.833-1.225 3.42 1.146v2.324a.695.695 0 01-.697.709c-7.441 0-14.476-7.03-14.476-14.467 0-.392.31-.699.706-.699z"/></symbol><symbol viewBox="0 0 19 30" id="prev" xmlns="http://www.w3.org/2000/svg"><path d="M15.385 0L19 3.525 7.256 15 19 26.475 15.385 30 0 15 15.385 0z" fill-opacity=".8"/></symbol><symbol viewBox="0 0 19 30" id="prev-2" xmlns="http://www.w3.org/2000/svg"><path d="M15.385 0L19 3.525 7.256 15 19 26.475 15.385 30 0 15 15.385 0z" fill-opacity=".8"/></symbol><symbol viewBox="0 0 37 37" id="production" xmlns="http://www.w3.org/2000/svg"><mask id="pa" maskUnits="userSpaceOnUse" x="0" y="0" width="37" height="37"><path d="M0 0h37v37H0z"/><path d="M35.417 21.417h-1.79L32.5 5.044a.584.584 0 00-.583-.544h-3.5a.584.584 0 00-.584.544l-1.127 16.373H25.5v-3.5a.584.584 0 00-.948-.456l-4.885 3.909v-3.453a.583.583 0 00-.948-.456l-4.886 3.909v-3.453a.583.583 0 00-.947-.456L8 21.37v-3.453a.584.584 0 00-.884-.5l-5.833 3.5a.583.583 0 00-.283.5v14c0 .322.261.583.583.583h33.834a.583.583 0 00.583-.583V22a.583.583 0 00-.583-.583zM28.96 5.667h2.41l1.087 15.75h-4.583l1.086-15.75zm-8.128 29.166v-7h3.5v7h-3.5zm14 0H25.5V27.25a.584.584 0 00-.584-.583H20.25a.583.583 0 00-.584.583v7.583h-17.5V21.747l4.667-2.8v3.636a.584.584 0 00.948.456l4.886-3.908v3.452a.584.584 0 00.947.456l4.886-3.908v3.453a.583.583 0 00.948.455l4.885-3.908v2.87c0 .322.261.583.584.583h9.916v12.25zM20.83 2.167c.211.114.403.262.566.439.328.399.793.658 1.304.728a2.13 2.13 0 001.374-.759c.148-.155.313-.291.493-.408.12.005.434.3.604.458.314.39.766.643 1.262.709A2.278 2.278 0 0027.9 2.53c.143-.134.359-.338.4-.363.314 0 .386.104.579.382.253.478.747.78 1.289.785a.583.583 0 000-1.167c-.117 0-.14-.008-.33-.282A1.724 1.724 0 0028.3 1a1.873 1.873 0 00-1.2.68c-.194.182-.519.487-.642.49a2.378 2.378 0 01-.491-.396 2.165 2.165 0 00-1.4-.774 2.023 2.023 0 00-1.29.721 2.42 2.42 0 01-.56.446 2.27 2.27 0 01-.526-.414A2.116 2.116 0 0020.833 1a.583.583 0 00-.004 1.167z"/><path d="M7.417 27.833H5.083a.583.583 0 00-.583.584v3.5c0 .322.261.583.583.583h2.334A.583.583 0 008 31.917v-3.5a.583.583 0 00-.583-.584zm-.584 3.5H5.667V29h1.166v2.333zm5.251-3.5H9.75a.583.583 0 00-.583.584v3.5c0 .322.26.583.583.583h2.334a.583.583 0 00.583-.583v-3.5a.583.583 0 00-.583-.584zm-.584 3.5h-1.167V29H11.5v2.333zm5.25-3.5h-2.333a.583.583 0 00-.584.584v3.5c0 .322.261.583.584.583h2.333a.583.583 0 00.583-.583v-3.5a.583.583 0 00-.583-.584zm-.584 3.5H15V29h1.166v2.333z"/></mask><path d="M35.417 21.417h-1.79L32.5 5.044a.584.584 0 00-.583-.544h-3.5a.584.584 0 00-.584.544l-1.127 16.373H25.5v-3.5a.584.584 0 00-.948-.456l-4.885 3.909v-3.453a.583.583 0 00-.948-.456l-4.886 3.909v-3.453a.583.583 0 00-.947-.456L8 21.37v-3.453a.584.584 0 00-.884-.5l-5.833 3.5a.583.583 0 00-.283.5v14c0 .322.261.583.583.583h33.834a.583.583 0 00.583-.583V22a.583.583 0 00-.583-.583zM28.96 5.667h2.41l1.087 15.75h-4.583l1.086-15.75zm-8.128 29.166v-7h3.5v7h-3.5zm14 0H25.5V27.25a.584.584 0 00-.584-.583H20.25a.583.583 0 00-.584.583v7.583h-17.5V21.747l4.667-2.8v3.636a.584.584 0 00.948.456l4.886-3.908v3.452a.584.584 0 00.947.456l4.886-3.908v3.453a.583.583 0 00.948.455l4.885-3.908v2.87c0 .322.261.583.584.583h9.916v12.25zM20.83 2.167c.211.114.403.262.566.439.328.399.793.658 1.304.728a2.13 2.13 0 001.374-.759c.148-.155.313-.291.493-.408.12.005.434.3.604.458.314.39.766.643 1.262.709A2.278 2.278 0 0027.9 2.53c.143-.134.359-.338.4-.363.314 0 .386.104.579.382.253.478.747.78 1.289.785a.583.583 0 000-1.167c-.117 0-.14-.008-.33-.282A1.724 1.724 0 0028.3 1a1.873 1.873 0 00-1.2.68c-.194.182-.519.487-.642.49a2.378 2.378 0 01-.491-.396 2.165 2.165 0 00-1.4-.774 2.023 2.023 0 00-1.29.721 2.42 2.42 0 01-.56.446 2.27 2.27 0 01-.526-.414A2.116 2.116 0 0020.833 1a.583.583 0 00-.004 1.167z"/><path d="M7.417 27.833H5.083a.583.583 0 00-.583.584v3.5c0 .322.261.583.583.583h2.334A.583.583 0 008 31.917v-3.5a.583.583 0 00-.583-.584zm-.584 3.5H5.667V29h1.166v2.333zm5.251-3.5H9.75a.583.583 0 00-.583.584v3.5c0 .322.26.583.583.583h2.334a.583.583 0 00.583-.583v-3.5a.583.583 0 00-.583-.584zm-.584 3.5h-1.167V29H11.5v2.333zm5.25-3.5h-2.333a.583.583 0 00-.584.584v3.5c0 .322.261.583.584.583h2.333a.583.583 0 00.583-.583v-3.5a.583.583 0 00-.583-.584zm-.584 3.5H15V29h1.166v2.333z"/><path d="M35.417 21.417h-1.79L32.5 5.044a.584.584 0 00-.583-.544h-3.5a.584.584 0 00-.584.544l-1.127 16.373H25.5v-3.5a.584.584 0 00-.948-.456l-4.885 3.909v-3.453a.583.583 0 00-.948-.456l-4.886 3.909v-3.453a.583.583 0 00-.947-.456L8 21.37v-3.453a.584.584 0 00-.884-.5l-5.833 3.5a.583.583 0 00-.283.5v14c0 .322.261.583.583.583h33.834a.583.583 0 00.583-.583V22a.583.583 0 00-.583-.583zM28.96 5.667h2.41l1.087 15.75h-4.583l1.086-15.75zm-8.128 29.166v-7h3.5v7h-3.5zm14 0H25.5V27.25a.584.584 0 00-.584-.583H20.25a.583.583 0 00-.584.583v7.583h-17.5V21.747l4.667-2.8v3.636a.584.584 0 00.948.456l4.886-3.908v3.452a.584.584 0 00.947.456l4.886-3.908v3.453a.583.583 0 00.948.455l4.885-3.908v2.87c0 .322.261.583.584.583h9.916v12.25zM20.83 2.167c.211.114.403.262.566.439.328.399.793.658 1.304.728a2.13 2.13 0 001.374-.759c.148-.155.313-.291.493-.408.12.005.434.3.604.458.314.39.766.643 1.262.709A2.278 2.278 0 0027.9 2.53c.143-.134.359-.338.4-.363.314 0 .386.104.579.382.253.478.747.78 1.289.785a.583.583 0 000-1.167c-.117 0-.14-.008-.33-.282A1.724 1.724 0 0028.3 1a1.873 1.873 0 00-1.2.68c-.194.182-.519.487-.642.49a2.378 2.378 0 01-.491-.396 2.165 2.165 0 00-1.4-.774 2.023 2.023 0 00-1.29.721 2.42 2.42 0 01-.56.446 2.27 2.27 0 01-.526-.414A2.116 2.116 0 0020.833 1a.583.583 0 00-.004 1.167z" mask="url(#pa)"/><path d="M7.417 27.833H5.083a.583.583 0 00-.583.584v3.5c0 .322.261.583.583.583h2.334A.583.583 0 008 31.917v-3.5a.583.583 0 00-.583-.584zm-.584 3.5H5.667V29h1.166v2.333zm5.251-3.5H9.75a.583.583 0 00-.583.584v3.5c0 .322.26.583.583.583h2.334a.583.583 0 00.583-.583v-3.5a.583.583 0 00-.583-.584zm-.584 3.5h-1.167V29H11.5v2.333zm5.25-3.5h-2.333a.583.583 0 00-.584.584v3.5c0 .322.261.583.584.583h2.333a.583.583 0 00.583-.583v-3.5a.583.583 0 00-.583-.584zm-.584 3.5H15V29h1.166v2.333z" mask="url(#pa)"/></symbol></svg>